<?xml version="1.0" standalone="no"?>
<!DOCTYPE svg PUBLIC "-//W3C//DTD SVG 20010904//EN"
 "http://www.w3.org/TR/2001/REC-SVG-20010904/DTD/svg10.dtd">
<svg version="1.0" xmlns="http://www.w3.org/2000/svg"
 width="500.000000pt" height="500.000000pt" viewBox="0 0 500.000000 500.000000"
 preserveAspectRatio="xMidYMid meet">

<g transform="translate(0.000000,500.000000) scale(0.100000,-0.100000)"
fill="#000000" stroke="none">
<path d="M1895 2793 c-47 -11 -62 -80 -23 -107 65 -46 160 18 120 81 -7 12
-57 34 -70 32 -4 -1 -16 -3 -27 -6z"/>
<path d="M450 2486 l0 -266 70 0 70 0 0 96 c0 92 1 95 22 92 16 -2 37 -29 76
-95 l54 -93 80 0 c61 0 77 3 72 13 -4 6 -38 58 -76 114 l-68 102 26 17 c40 27
67 89 61 142 -6 52 -31 89 -78 117 -28 16 -57 20 -171 23 l-138 4 0 -266z
m221 144 c13 -7 19 -21 19 -45 0 -39 -28 -65 -72 -65 -28 0 -28 1 -28 60 l0
60 31 0 c17 0 39 -5 50 -10z"/>
<path d="M3219 2498 c-44 -138 -83 -258 -86 -265 -4 -10 13 -13 75 -13 l80 0
12 50 12 50 88 0 88 0 12 -50 12 -50 78 0 78 0 -62 193 c-35 105 -73 225 -86
265 l-24 72 -98 0 -97 0 -82 -252z m209 49 c12 -50 22 -95 22 -99 0 -5 -23 -8
-51 -8 -43 0 -50 3 -47 18 12 62 44 182 48 182 3 0 15 -42 28 -93z"/>
<path d="M3730 2486 l0 -266 70 0 70 0 0 85 c0 47 3 85 8 85 4 0 35 5 70 10
110 15 162 74 162 183 0 64 -26 110 -80 141 -29 18 -56 22 -167 24 l-133 4 0
-266z m219 135 c19 -12 18 -68 0 -86 -8 -8 -29 -17 -47 -21 l-32 -6 0 61 0 61
33 0 c17 0 38 -4 46 -9z"/>
<path d="M4200 2486 l0 -266 70 0 70 0 0 90 0 90 55 0 c113 0 177 60 183 170
3 55 0 70 -20 99 -43 64 -76 76 -225 79 l-133 4 0 -266z m230 125 c5 -11 10
-27 10 -36 0 -25 -46 -65 -75 -65 -24 0 -25 2 -25 60 l0 60 40 0 c29 0 42 -5
50 -19z"/>
<path d="M2540 2668 c-11 -24 -33 -52 -50 -63 -23 -15 -30 -27 -30 -52 0 -29
3 -33 25 -33 l25 0 0 -104 c0 -58 4 -116 9 -129 24 -63 90 -87 186 -67 l55 11
0 55 c0 32 -4 53 -10 49 -19 -12 -82 -8 -91 6 -5 8 -9 51 -9 97 l0 82 50 0 50
0 0 55 0 55 -50 0 -50 0 0 40 0 40 -46 0 c-44 0 -46 -1 -64 -42z"/>
<path d="M1061 2631 c-84 -22 -131 -95 -131 -203 0 -38 6 -83 14 -101 35 -85
142 -129 264 -109 81 14 92 23 92 79 0 42 -2 45 -22 39 -112 -32 -176 -27
-198 14 -20 38 -13 40 115 40 l125 0 0 60 c0 74 -25 129 -73 159 -39 24 -133
35 -186 22z m111 -108 c34 -31 23 -43 -42 -43 -52 0 -59 2 -53 18 14 41 63 55
95 25z"/>
<path d="M1487 2626 c-46 -17 -64 -32 -83 -67 -28 -54 -10 -142 33 -168 16
-10 17 -12 2 -23 -36 -29 -42 -83 -10 -103 16 -9 13 -25 -4 -25 -28 0 -65 -47
-65 -82 0 -79 58 -113 190 -113 79 1 103 4 143 24 61 30 87 70 87 134 0 40 -5
54 -28 77 -29 28 -61 36 -181 43 -68 3 -62 23 10 31 109 11 161 58 161 144 -1
45 2 51 24 56 20 5 24 13 24 41 l0 35 -67 0 c-38 0 -97 2 -133 5 -43 4 -78 1
-103 -9z m107 -82 c40 -39 2 -129 -43 -104 -16 8 -21 20 -21 53 0 62 30 86 64
51z m26 -340 c71 -15 43 -62 -42 -71 -61 -6 -98 7 -98 36 0 33 65 49 140 35z"/>
<path d="M2175 2625 c-57 -20 -85 -56 -85 -110 0 -58 31 -94 112 -130 63 -28
81 -42 72 -57 -8 -13 -99 -9 -143 7 l-41 14 0 -59 0 -59 38 -8 c20 -4 69 -8
107 -8 117 1 175 44 175 132 0 63 -18 85 -104 128 -43 22 -78 45 -78 50 2 17
51 17 98 1 l44 -15 19 42 c22 51 15 60 -61 76 -65 14 -104 13 -153 -4z"/>
<path d="M3040 2629 c-14 -6 -37 -22 -52 -36 l-28 -27 -11 32 c-10 31 -13 32
-65 32 l-54 0 0 -205 0 -205 69 0 69 0 4 119 c4 144 13 161 88 161 47 0 47 0
54 38 3 20 6 52 6 70 0 28 -3 32 -27 31 -16 0 -39 -5 -53 -10z"/>
<path d="M1850 2425 l0 -205 70 0 70 0 0 205 0 205 -70 0 -70 0 0 -205z"/>
</g>
</svg>
